<svg xmlns="http://www.w3.org/2000/svg" width="500" height="500" viewBox="0 0 500 500">
<g>
<path d="M 148.04 320.44 L 147.97 287.50 L 237.98 197.50 L 328.00 107.50 L 328.00 173.49 L 302.35 199.15 L 276.71 224.81 L 288.83 238.69 C283.26,232.35 279.35,227.94 278.67,227.26 L 276.47 225.01 L 243.89 257.63 L 244.70 258.54 C242.89,259.28 224.38,277.12 196.03,305.47 L 148.10 353.39 ZM 290.86 311.29 C310.03,333.27 326.01,351.42 327.50,352.90 L 327.50 353.29 L 307.52 330.40 C300.00,321.77 288.99,309.15 279.10,297.81 C282.90,302.16 286.85,306.70 290.86,311.29 ZM 327.96 283.77 L 328.03 283.85 L 327.96 292.28 L 327.96 283.77 Z" fill="rgba(7,10,14,1)"/>
<path d="M 290.86 311.29 C270.86,288.36 252.11,266.90 249.20,263.61 L 243.89 257.63 L 260.18 241.32 L 276.47 225.01 L 278.67 227.26 C279.88,228.49 291.47,241.65 304.42,256.50 L 327.96 283.50 L 327.98 318.25 C327.99,337.36 327.83,353.00 327.61,353.00 C327.40,353.00 310.86,334.23 290.86,311.29 ZM 148.00 235.49 L 148.00 202.49 L 205.77 144.73 L 263.53 86.97 L 296.27 87.24 L 329.01 87.50 L 238.50 178.00 L 148.00 268.50 L 148.00 235.49 Z" fill="rgba(232,89,13,1)"/>
</g>
</svg>