<?xml version="1.0" encoding="UTF-8" standalone="no"?>
<svg
   width="500"
   height="500"
   viewBox="0 0 500 500"
   version="1.1"
   id="svg3"
   sodipodi:docname="Logo svg.svg"
   inkscape:version="1.4.2 (f4327f4, 2025-05-13)"
   xmlns:inkscape="http://www.inkscape.org/namespaces/inkscape"
   xmlns:sodipodi="http://sodipodi.sourceforge.net/DTD/sodipodi-0.dtd"
   xmlns="http://www.w3.org/2000/svg"
   xmlns:svg="http://www.w3.org/2000/svg">
  <defs
     id="defs3" />
  <sodipodi:namedview
     id="namedview3"
     pagecolor="#ffffff"
     bordercolor="#000000"
     borderopacity="0.25"
     inkscape:showpageshadow="2"
     inkscape:pageopacity="0.0"
     inkscape:pagecheckerboard="true"
     inkscape:deskcolor="#d1d1d1"
     inkscape:zoom="1.167"
     inkscape:cx="232.64781"
     inkscape:cy="238.6461"
     inkscape:window-width="2560"
     inkscape:window-height="1369"
     inkscape:window-x="-8"
     inkscape:window-y="340"
     inkscape:window-maximized="1"
     inkscape:current-layer="svg3" />
  <g
     id="g3"
     transform="translate(0.85689851,0.85689759)">
    <path
       d="M 244.75,302.58 C 183.01,364.4 132.16,414.99 131.75,414.99 131.34,415 131,396.66 131,374.25 V 333.5 L 243.25,221.25 C 304.99,159.51 355.84,109 356.25,109 c 0.41,0 0.75,18.26 0.75,40.58 v 40.59 z"
       fill="#0f172a"
       id="path1" />
    <path
       d="m 357,82.75 c 0,0.42 -50.85,51.6 -113,113.75 l -113,113 V 227.49 L 203.75,154.75 276.51,82 h 40.24 C 338.89,82 357,82.34 357,82.75 Z M 244.75,302.58 357,190.17 v 0.26 l -32.17,32.23 -32.17,32.23 5.48,6.3 c 3.02,3.47 16.27,18.69 29.43,33.81 13.17,15.12 25.18,29 26.69,30.83 l 2.74,3.32 v 42.93 c 0,23.86 -0.39,42.92 -0.87,42.92 -0.49,0 -23.96,-26.44 -52.17,-58.75 -28.21,-32.31 -51.78,-58.87 -52.38,-59.02 -0.59,-0.14 -27.63,26.29 -60.08,58.75 -32.45,32.46 -59.33,59.02 -59.75,59.02 -0.01,0 -0.02,-0.01 -0.03,-0.03 0.01,0.01 0.02,0.02 0.03,0.02 0.41,0 51.26,-50.59 113,-112.41 z"
       fill="#ea580c"
       id="path2" />
  </g>
</svg>
